<?xml version="1.0" encoding="UTF-8"?>
<svg xmlns="http://www.w3.org/2000/svg" xmlns:xlink="http://www.w3.org/1999/xlink" width="80pt" height="80pt" viewBox="0 0 80 80" version="1.1">
<g id="surface1">
<path style=" stroke:none;fill-rule:nonzero;fill:rgb(0%,0%,0%);fill-opacity:1;" d="M 67.96875 3.75 C 67.65625 3.59375 67.34375 3.28125 66.71875 3.28125 C 66.09375 3.28125 63.75 3.28125 50 15.15625 C 44.21875 20 37.8125 25.9375 32.1875 31.25 C 30.625 32.8125 29.0625 34.375 27.65625 35.78125 C 19.0625 36.71875 17.96875 42.34375 17.03125 46.71875 C 16.25 50.46875 15.78125 52.5 12.65625 52.8125 C 12.1875 52.8125 11.71875 53.28125 11.71875 53.75 C 11.5625 54.21875 11.875 54.6875 12.34375 54.84375 C 12.5 54.84375 16.71875 56.71875 21.71875 56.71875 C 27.1875 56.71875 34.0625 54.53125 36.25 44.53125 C 42.8125 37.8125 51.09375 28.59375 57.65625 20.78125 C 61.09375 16.5625 63.90625 12.96875 65.625 10.3125 C 68.28125 6.40625 68.90625 4.6875 67.96875 3.75 Z M 32.96875 33.59375 L 38.4375 39.21875 C 37.34375 40.3125 36.40625 41.40625 35.3125 42.5 L 29.6875 36.71875 C 30.625 35.78125 31.71875 34.6875 32.96875 33.59375 Z M 21.71875 54.53125 C 19.53125 54.53125 17.5 54.21875 16.09375 53.75 C 18.125 52.34375 18.59375 49.6875 19.0625 47.1875 C 20 42.8125 20.78125 38.75 27.8125 37.8125 L 34.21875 44.375 C 32.5 51.09375 28.4375 54.53125 21.71875 54.53125 Z M 55.15625 20.46875 C 50.46875 26.09375 45 32.1875 40 37.65625 L 34.375 32.03125 C 39.6875 27.03125 45.9375 21.40625 51.40625 16.71875 C 60.78125 8.59375 64.53125 6.40625 65.9375 5.625 C 65.3125 7.1875 63.125 10.9375 55.15625 20.46875 Z M 55.15625 20.46875 "/>
</g>
</svg>
