<?xml version="1.0" encoding="UTF-8"?>
<svg xmlns="http://www.w3.org/2000/svg" xmlns:xlink="http://www.w3.org/1999/xlink" width="60pt" height="71pt" viewBox="0 0 60 71" version="1.1">
<g id="surface1">
<path style=" stroke:none;fill-rule:nonzero;fill:rgb(0%,0%,0%);fill-opacity:1;" d="M 24.160156 4.300781 C 24.070312 4.367188 24 5.035156 24 5.75 C 24 7.335938 23.007812 9.496094 21.785156 10.554688 C 19.222656 12.808594 15.136719 13.449219 11.652344 12.1875 C 10.890625 11.910156 10.109375 11.632812 9.898438 11.566406 C 9.460938 11.449219 7.199219 14.644531 5.515625 17.820312 L 4.339844 20.003906 L 6.183594 21.726562 C 9.714844 25.039062 11.539062 28.648438 12.601562 34.464844 C 13.175781 37.707031 12.808594 41.523438 11.515625 45.523438 C 10.429688 48.859375 8.054688 52.398438 5.585938 54.355469 C 3.96875 55.640625 3.96875 55.433594 5.816406 57.894531 C 7.40625 59.988281 9.390625 62.195312 10.316406 62.90625 L 11.054688 63.480469 L 12.160156 62.929688 C 14.355469 61.824219 15.691406 61.503906 18.117188 61.503906 C 21.921875 61.503906 24.625 62.699219 27.578125 65.644531 L 29.445312 67.503906 L 31.109375 65.710938 C 32.953125 63.757812 34.453125 62.835938 37.128906 61.941406 C 40.0625 60.976562 43.777344 61.367188 46.683594 62.953125 L 47.792969 63.550781 L 49.523438 61.824219 C 51.253906 60.125 53.839844 56.929688 54.300781 55.917969 C 54.507812 55.480469 54.460938 55.34375 53.976562 54.996094 C 52.914062 54.261719 51.390625 52.765625 50.375 51.433594 C 49.199219 49.894531 47.308594 46.03125 46.777344 44.03125 C 45.324219 38.605469 45.921875 32.417969 48.347656 27.453125 C 49.363281 25.359375 51.625 22.257812 52.660156 21.542969 C 52.960938 21.335938 53.492188 20.921875 53.863281 20.601562 L 54.53125 20.050781 L 53.144531 17.542969 C 52.0625 15.589844 49.292969 11.496094 49.0625 11.496094 C 49.039062 11.496094 48.160156 11.796875 47.125 12.1875 C 43.636719 13.449219 40.128906 12.96875 37.339844 10.851562 C 35.863281 9.726562 34.847656 7.75 34.683594 5.65625 L 34.546875 4.136719 L 29.421875 4.136719 C 26.609375 4.136719 24.230469 4.207031 24.160156 4.300781 Z M 32.90625 6.597656 C 33.277344 8.324219 33.808594 9.542969 34.636719 10.578125 C 36.4375 12.851562 38.816406 14.117188 42.09375 14.554688 C 43.707031 14.761719 44.191406 14.714844 46.316406 14.253906 C 47.628906 13.957031 48.738281 13.773438 48.761719 13.816406 C 49.523438 14.96875 50.652344 16.785156 51.324219 18.003906 L 52.199219 19.566406 L 51.277344 20.371094 C 49.871094 21.566406 47.652344 24.601562 46.59375 26.785156 C 45.4375 29.152344 44.398438 33.222656 44.191406 36.121094 C 43.683594 42.925781 46.339844 50.308594 50.839844 54.699219 L 52.128906 55.941406 L 51.625 56.675781 C 50.816406 57.847656 48.875 60.101562 48.183594 60.675781 L 47.539062 61.183594 L 45.832031 60.609375 C 43.40625 59.757812 41.167969 59.503906 38.976562 59.78125 C 37.246094 59.988281 33.992188 61.089844 33.230469 61.710938 C 33.046875 61.847656 32.628906 62.101562 32.308594 62.261719 C 31.984375 62.425781 31.222656 63.023438 30.601562 63.574219 C 29.976562 64.148438 29.421875 64.609375 29.332031 64.609375 C 29.238281 64.609375 28.871094 64.285156 28.476562 63.894531 C 27.390625 62.746094 24.601562 61.019531 23.03125 60.492188 C 19.617188 59.367188 16.246094 59.410156 12.945312 60.585938 C 11.539062 61.089844 11.214844 61.136719 10.914062 60.882812 C 10.292969 60.378906 8.746094 58.675781 7.683594 57.320312 L 6.691406 56.03125 L 8.03125 54.628906 C 12.300781 50.144531 14.539062 44.488281 14.539062 38.191406 C 14.539062 30.949219 12.324219 25.175781 7.871094 20.761719 L 6.667969 19.589844 L 7.269531 18.394531 C 8.03125 16.921875 9.808594 14.117188 10.128906 13.933594 C 10.269531 13.839844 10.914062 13.933594 11.585938 14.117188 C 17.078125 15.65625 22.824219 13.613281 24.921875 9.335938 C 25.339844 8.53125 25.707031 7.449219 25.777344 6.921875 L 25.914062 5.976562 L 32.769531 5.976562 Z M 32.90625 6.597656 "/>
</g>
</svg>
