<?xml version="1.0" encoding="UTF-8"?>
<svg xmlns="http://www.w3.org/2000/svg" xmlns:xlink="http://www.w3.org/1999/xlink" width="60pt" height="48pt" viewBox="0 0 60 48" version="1.1">
<g id="surface1">
<path style=" stroke:none;fill-rule:nonzero;fill:rgb(0%,0%,0%);fill-opacity:1;" d="M 23.929688 17.945312 L 9.171875 32.863281 L 15.1875 38.945312 L 21.179688 45 L 35.960938 30.054688 L 50.71875 15.136719 L 44.703125 9.054688 L 38.714844 3 Z M 35.152344 29.238281 L 21.179688 43.363281 L 16 38.128906 L 10.792969 32.863281 L 12.328125 31.308594 L 13.867188 29.726562 L 15.703125 31.554688 C 17.265625 33.136719 17.5625 33.328125 17.941406 33 C 18.316406 32.671875 18.183594 32.425781 16.539062 30.761719 L 14.730469 28.910156 L 16.050781 27.546875 L 17.375 26.183594 L 20.691406 29.507812 C 23.578125 32.425781 24.039062 32.78125 24.414062 32.453125 C 24.792969 32.128906 24.496094 31.71875 21.527344 28.71875 L 18.238281 25.363281 L 19.558594 24 L 20.882812 22.636719 L 22.714844 24.464844 C 24.28125 26.046875 24.578125 26.238281 24.953125 25.910156 C 25.332031 25.582031 25.199219 25.335938 23.550781 23.671875 L 21.746094 21.816406 L 24.386719 19.089844 L 27.707031 22.417969 C 30.59375 25.335938 31.050781 25.691406 31.429688 25.363281 C 31.808594 25.035156 31.511719 24.628906 28.542969 21.628906 L 25.25 18.273438 L 26.574219 16.910156 L 27.894531 15.546875 L 29.730469 17.371094 C 31.296875 18.953125 31.589844 19.144531 31.96875 18.816406 C 32.347656 18.492188 32.210938 18.246094 30.566406 16.582031 L 28.757812 14.726562 L 30.082031 13.363281 L 31.402344 12 L 34.722656 15.328125 C 37.609375 18.246094 38.066406 18.601562 38.445312 18.273438 C 38.820312 17.945312 38.523438 17.535156 35.558594 14.535156 L 32.265625 11.183594 L 33.589844 9.816406 L 34.910156 8.453125 L 36.746094 10.28125 C 38.308594 11.863281 38.605469 12.054688 38.984375 11.726562 C 39.363281 11.398438 39.226562 11.15625 37.582031 9.492188 L 35.773438 7.636719 L 37.230469 6.136719 L 38.714844 4.636719 L 43.894531 9.871094 L 49.101562 15.136719 Z M 35.152344 29.238281 "/>
</g>
</svg>
